<svg width="19" height="19" viewBox="0 0 19 19" fill="none" xmlns="http://www.w3.org/2000/svg">
<path d="M18.5377 10.8268C18.3433 10.778 18.1489 10.8268 17.9789 10.9488C17.3472 11.4856 16.6183 11.9247 15.8165 12.2175C15.0634 12.5103 14.2373 12.6566 13.3627 12.6566C11.3947 12.6566 9.59682 11.8515 8.30914 10.5584C7.02147 9.26537 6.21971 7.45995 6.21971 5.48375C6.21971 4.65424 6.36549 3.84912 6.60844 3.11719C6.8757 2.33647 7.26443 1.62894 7.77464 1.019C7.9933 0.750625 7.94471 0.360264 7.67746 0.140686C7.50739 0.0186985 7.31302 -0.0300967 7.11865 0.0186985C5.05351 0.579842 3.25563 1.82412 1.96796 3.48315C0.728872 5.11779 0 7.14279 0 9.33857C0 11.9979 1.06901 14.4133 2.81831 16.1699C4.5676 17.9265 6.94858 19 9.62111 19C11.8563 19 13.9215 18.2193 15.5736 16.9262C17.25 15.6087 18.4648 13.7301 18.975 11.5831C19.0722 11.2416 18.8778 10.9 18.5377 10.8268Z" fill="black"/>
</svg>
