<svg width="16" height="19" viewBox="0 0 16 19" fill="none" xmlns="http://www.w3.org/2000/svg">
<path d="M14.1551 5.84023L14.8972 5.09529C15.1856 4.80581 15.1856 4.33643 14.8972 4.0471C14.6088 3.75761 14.1413 3.75761 13.8529 4.0471L13.1108 4.79204C11.8656 3.75066 10.3525 3.12154 8.73849 2.97426V1.48249H9.45235C9.86018 1.48249 10.1908 1.15054 10.1908 0.741173C10.1908 0.33181 9.86018 0 9.45235 0H6.54765C6.13982 0 5.80924 0.33181 5.80924 0.741173C5.80924 1.15054 6.13982 1.48249 6.54765 1.48249H7.26152V2.97426C3.22126 3.34303 0 6.74985 0 10.97C0 15.4081 3.57797 19 8.00007 19C12.4215 19 16 15.4087 16 10.97C16 9.07426 15.3495 7.27895 14.1551 5.84023ZM7.99993 17.5175C4.40318 17.5175 1.47683 14.5804 1.47683 10.97C1.47683 7.35983 4.40318 4.42268 7.99993 4.42268C11.5968 4.42268 14.523 7.35983 14.523 10.97C14.523 14.5804 11.5968 17.5175 7.99993 17.5175ZM11.4222 7.53509C11.7106 7.82457 11.7106 8.29395 11.4222 8.58328L8.52215 11.4942C8.23374 11.7837 7.76611 11.7837 7.47785 11.4942C7.18945 11.2047 7.18945 10.7353 7.47785 10.446L10.3778 7.53509C10.6662 7.24561 11.1338 7.24561 11.4222 7.53509Z" fill="black"/>
</svg>
