<svg width="16" height="16" viewBox="0 0 16 16" fill="none" xmlns="http://www.w3.org/2000/svg">
<g clip-path="url(#clip0_748_1190)">
<path d="M14.5142 0H1.48573C1.17365 0 0.939511 0.264084 0.967044 0.576131L2.15704 13.9114C2.1846 14.2232 2.4543 14.5495 2.75679 14.6338L7.44789 15.9369C7.74997 16.0206 8.24374 16.0212 8.54627 15.938L13.2432 14.6367C13.5457 14.5527 13.8154 14.2293 13.843 13.917L15.0335 0.576131C15.061 0.264084 14.8278 0 14.5142 0ZM12.2547 4.81365C12.2545 4.81569 12.2529 4.81728 12.2509 4.81762C12.2488 4.81796 12.2469 4.81691 12.246 4.81501L8.57064 6.32116C8.51829 6.34261 8.48845 6.39812 8.49933 6.45363C8.51027 6.50913 8.55895 6.54918 8.61554 6.54918H11.4744C11.6265 6.54918 11.7713 6.61376 11.873 6.72685C11.9747 6.83995 12.0236 6.9909 12.0074 7.1421L11.5607 11.3324C11.5388 11.538 11.4007 11.7126 11.2056 11.7813L8.1712 12.849C8.05692 12.8892 7.93234 12.8895 7.81779 12.8498L4.79753 11.8036C4.6013 11.7356 4.462 11.5605 4.43994 11.354L4.23745 9.45624C4.22681 9.35661 4.259 9.25715 4.32596 9.18268C4.39296 9.10817 4.48841 9.06561 4.58862 9.06561H5.42907C5.60967 9.06561 5.76114 9.20181 5.78024 9.38136L5.90448 10.5478L7.9957 11.2747L10.0965 10.5412L10.3535 8.12199H4.41359C4.23354 8.12199 4.08231 7.98653 4.06256 7.80756L3.94947 6.78223C3.9322 6.62583 4.02044 6.47691 4.16586 6.41698L7.96742 4.84964C8.01055 4.83187 8.03506 4.78615 8.02602 4.74039C8.01695 4.69467 7.97687 4.66174 7.93027 4.66174H3.92775C3.80724 4.66174 3.70619 4.57074 3.69361 4.45095L3.57783 3.3489C3.57086 3.28258 3.59238 3.21639 3.63701 3.1668C3.68164 3.11724 3.74524 3.08892 3.81193 3.08892H12.1868C12.2539 3.08892 12.3178 3.11755 12.3624 3.16755C12.4071 3.21758 12.4283 3.28428 12.4207 3.3509L12.2547 4.81365Z" fill="#2A65F1"/>
</g>
<defs>
<clipPath id="clip0_748_1190">
<rect width="16" height="16" fill="white"/>
</clipPath>
</defs>
</svg>
