<svg width="16" height="16" viewBox="0 0 16 16" fill="none" xmlns="http://www.w3.org/2000/svg">
<path d="M1.19482 0C1.04777 0 0.938202 0.119834 0.95125 0.266297L2.19097 14.1719C2.20402 14.3183 2.33059 14.4703 2.47235 14.5097L7.7331 15.9704C7.87481 16.0097 8.10667 16.0097 8.24842 15.9705L13.5252 14.5074C13.6669 14.4681 13.7936 14.3161 13.8067 14.1697L15.0484 0.266297C15.0616 0.119834 14.9519 0 14.8048 0H1.19482ZM12.4083 3.1892C12.3966 3.31983 12.3763 3.54661 12.3632 3.69308L12.3306 4.05792C12.3174 4.20433 12.2987 4.41374 12.2888 4.5232C12.279 4.63271 12.2696 4.72228 12.2679 4.72228C12.2662 4.72228 12.1445 4.72228 11.9975 4.72228H8.26719C8.12014 4.72228 7.9986 4.72228 7.99699 4.72228C7.99539 4.72228 7.87374 4.72228 7.72669 4.72228H5.76208C5.61503 4.72228 5.50546 4.84211 5.51851 4.98857L5.6331 6.26953C5.64615 6.41593 5.77721 6.53582 5.92426 6.53582H7.72674C7.87379 6.53582 7.99544 6.53582 7.99705 6.53582C7.99865 6.53582 8.1202 6.53582 8.26725 6.53582H11.3654C11.5125 6.53582 11.7401 6.53582 11.8711 6.53582C12.0021 6.53582 12.0996 6.64271 12.0878 6.77335C12.0758 6.90399 12.0555 7.13082 12.0424 7.27723L11.6739 11.4069C11.6608 11.5533 11.6441 11.7404 11.637 11.8227C11.6296 11.9049 11.5078 12.0043 11.3661 12.0436L8.25752 12.9055C8.11581 12.9448 7.99806 12.9773 7.99587 12.9777C7.99368 12.9782 7.87598 12.9464 7.73423 12.9071L4.62235 12.0436C4.48065 12.0043 4.35402 11.8523 4.34097 11.7058L4.14066 9.45755C4.12761 9.31108 4.23729 9.19125 4.38434 9.19125H4.66834C4.81539 9.19125 5.05602 9.19125 5.20307 9.19125H5.62658C5.77363 9.19125 5.90458 9.31108 5.91774 9.45755L5.99629 10.3377C6.00934 10.4841 6.13612 10.6353 6.27815 10.6736L7.73374 11.0667C7.87566 11.1051 7.99234 11.1364 7.99298 11.1364C7.99363 11.1364 8.11025 11.105 8.25222 11.0667L9.71044 10.6726C9.85236 10.6343 9.97925 10.4831 9.9924 10.3366L10.1505 8.57331C10.1637 8.42685 10.0541 8.30702 9.90706 8.30702H8.26725C8.1202 8.30702 7.99865 8.30702 7.99705 8.30702C7.99544 8.30702 7.87379 8.30702 7.72674 8.30702H4.30504C4.15799 8.30702 4.02703 8.18713 4.01398 8.04072L3.62598 3.69302C3.61293 3.54656 3.59267 3.31983 3.58096 3.18914C3.56935 3.05851 3.6801 2.95162 3.82715 2.95162H7.72674C7.87379 2.95162 7.99544 2.95162 7.99705 2.95162C7.99865 2.95162 8.1202 2.95162 8.26725 2.95162H12.1621C12.3091 2.95162 12.4199 3.05851 12.4083 3.1892Z" fill="#E44D25"/>
</svg>
