<svg width="16" height="16" viewBox="0 0 16 16" fill="none" xmlns="http://www.w3.org/2000/svg">
<path d="M16 0H0V16H16V0Z" fill="#F5DE19"/>
<path d="M10.7483 12.4998C10.8846 12.7768 11.0964 13.0095 11.3593 13.1713C11.6222 13.333 11.9254 13.4172 12.234 13.4141C12.8569 13.4141 13.2552 13.1027 13.2552 12.6713C13.2552 12.157 12.846 11.973 12.1603 11.673L11.7843 11.5118C10.6986 11.0496 9.9786 10.4707 9.9786 9.2467C9.9786 8.11927 10.8357 7.26041 12.1803 7.26041C12.6156 7.22898 13.0505 7.3264 13.4307 7.54051C13.811 7.75462 14.1198 8.07594 14.3186 8.46441L13.1432 9.21584C13.0666 9.02322 12.9333 8.85843 12.7609 8.74331C12.5886 8.6282 12.3853 8.5682 12.178 8.57127C12.0876 8.56222 11.9963 8.5721 11.9099 8.60029C11.8235 8.62848 11.7439 8.67435 11.6763 8.73499C11.6086 8.79563 11.5543 8.86971 11.5168 8.9525C11.4793 9.03528 11.4595 9.12497 11.4586 9.21584C11.4586 9.6667 11.738 9.84955 12.3832 10.1301L12.7592 10.2913C14.0369 10.8393 14.7592 11.3976 14.7592 12.653C14.7592 14.0067 13.6957 14.7484 12.2677 14.7484C11.7113 14.7839 11.1566 14.6575 10.6704 14.3847C10.1842 14.1118 9.78735 13.7041 9.52775 13.2107L10.7483 12.4998ZM5.43689 12.6301C5.67289 13.049 5.88775 13.4033 6.40432 13.4033C6.89803 13.4033 7.21003 13.2101 7.21003 12.4587V7.34613H8.71346V12.4787C8.71346 14.0353 7.79918 14.7438 6.46832 14.7438C5.99789 14.7696 5.53069 14.6523 5.12814 14.4075C4.72559 14.1628 4.40652 13.8019 4.21289 13.3724L5.43689 12.6301Z" fill="black"/>
</svg>
