
<svg width="10" height="10" viewBox="0 0 14 14" fill="none" xmlns="http://www.w3.org/2000/svg">
<path d="M4.83984 0.0830078L5.10645 0.862305C4.56413 1.03092 4.19043 1.33398 3.98535 1.77148C3.78027 2.20443 3.67773 2.70117 3.67773 3.26172V4.67676C3.67773 5.13249 3.58431 5.5472 3.39746 5.9209C3.21517 6.29004 2.9235 6.58398 2.52246 6.80273C2.12598 7.02148 1.60417 7.13086 0.957031 7.13086V6.29688C1.47201 6.29688 1.84115 6.15104 2.06445 5.85938C2.29232 5.56771 2.40625 5.1735 2.40625 4.67676V3.26172C2.40625 2.7832 2.47917 2.33659 2.625 1.92188C2.77539 1.5026 3.02604 1.13574 3.37695 0.821289C3.73242 0.502279 4.22005 0.256185 4.83984 0.0830078ZM5.10645 12.7158L4.83984 13.502C4.22005 13.3242 3.73242 13.0781 3.37695 12.7637C3.02604 12.4492 2.77539 12.0824 2.625 11.6631C2.47917 11.2484 2.40625 10.8018 2.40625 10.3232V8.91504C2.40625 8.58236 2.35612 8.29525 2.25586 8.05371C2.1556 7.81217 1.99837 7.62533 1.78418 7.49316C1.57454 7.35645 1.29883 7.28809 0.957031 7.28809V6.4541C1.60417 6.4541 2.12598 6.56348 2.52246 6.78223C2.9235 7.00098 3.21517 7.2972 3.39746 7.6709C3.58431 8.04004 3.67773 8.45475 3.67773 8.91504V10.3232C3.67773 10.6969 3.72103 11.0433 3.80762 11.3623C3.89876 11.6813 4.04688 11.957 4.25195 12.1895C4.46159 12.4264 4.74642 12.6019 5.10645 12.7158ZM8.87305 0.862305L9.13965 0.0830078C9.764 0.256185 10.2516 0.502279 10.6025 0.821289C10.958 1.13574 11.2087 1.5026 11.3545 1.92188C11.5003 2.33659 11.5732 2.7832 11.5732 3.26172V4.67676C11.5732 5.00488 11.6234 5.29199 11.7236 5.53809C11.8239 5.77962 11.9788 5.96647 12.1885 6.09863C12.4027 6.23079 12.6807 6.29688 13.0225 6.29688V7.06934C12.3799 7.06934 11.8581 6.9668 11.457 6.76172C11.056 6.55208 10.762 6.26725 10.5752 5.90723C10.3929 5.54264 10.3018 5.13249 10.3018 4.67676V3.26172C10.3018 2.88802 10.2585 2.54167 10.1719 2.22266C10.0853 1.89909 9.93717 1.62109 9.72754 1.38867C9.52246 1.15169 9.23763 0.976237 8.87305 0.862305ZM9.13965 13.502L8.87305 12.7158C9.23307 12.6019 9.51562 12.4264 9.7207 12.1895C9.93034 11.957 10.0785 11.6813 10.165 11.3623C10.2562 11.0433 10.3018 10.6969 10.3018 10.3232V8.91504C10.3018 8.45475 10.3929 8.0446 10.5752 7.68457C10.762 7.32454 11.056 7.04199 11.457 6.83691C11.8581 6.62728 12.3799 6.52246 13.0225 6.52246V7.28809C12.512 7.28809 12.1429 7.4362 11.915 7.73242C11.6872 8.02409 11.5732 8.41829 11.5732 8.91504V10.3232C11.5732 10.8018 11.5003 11.2484 11.3545 11.6631C11.2087 12.0824 10.958 12.4492 10.6025 12.7637C10.2516 13.0781 9.764 13.3242 9.13965 13.502Z" fill="#F9A400"/>
</svg>
