<svg width="18" height="16" viewBox="0 0 18 16" fill="none" xmlns="http://www.w3.org/2000/svg">
<path d="M8.99132 9.59079C9.87805 9.59079 10.5969 8.87195 10.5969 7.98522C10.5969 7.09848 9.87805 6.37964 8.99132 6.37964C8.10458 6.37964 7.38574 7.09848 7.38574 7.98522C7.38574 8.87195 8.10458 9.59079 8.99132 9.59079Z" fill="#00D8FF"/>
<path d="M8.99166 5.10392C11.0665 5.10392 13.0374 5.39644 14.5358 5.91229C16.2 6.48518 17.2151 7.3322 17.2151 7.98483C17.2151 8.68001 16.1188 9.58251 14.3387 10.1723C12.9216 10.6418 11.0256 10.8977 8.99166 10.8977C6.85496 10.8977 4.93754 10.6468 3.53686 10.168C2.65997 9.86832 1.93581 9.4788 1.43945 9.05373C0.993425 8.67176 0.768241 8.29253 0.768241 7.98483C0.768241 7.33 1.7445 6.49475 3.37276 5.92706C4.87179 5.40447 6.89098 5.10392 8.99166 5.10392ZM8.99166 4.33568C6.80937 4.33568 4.70561 4.64881 3.11985 5.20164C1.21591 5.86545 0 6.90573 0 7.98483C0 9.09934 1.3053 10.2172 3.28839 10.895C4.77901 11.4045 6.77704 11.666 8.99166 11.666C11.1023 11.666 13.0781 11.3993 14.5804 10.9016C16.642 10.2185 17.9833 9.11423 17.9833 7.98483C17.9833 6.90183 16.7282 5.85453 14.7859 5.18588C13.2021 4.64062 11.1474 4.33568 8.99166 4.33568ZM6.48214 6.55362C7.51865 4.7563 8.75669 3.19505 9.95211 2.15471C11.2798 0.999318 12.5206 0.543105 13.086 0.869129C13.6882 1.21641 13.9224 2.61699 13.544 4.4536C13.2428 5.91578 12.5173 7.6861 11.5012 9.44804C10.4337 11.299 9.25849 12.8346 8.14398 13.8088C7.44627 14.4187 6.74708 14.8515 6.13088 15.0691C5.57717 15.2646 5.13615 15.2702 4.86958 15.1165C4.30234 14.7894 4.0665 13.5264 4.38817 11.8323C4.6843 10.2727 5.43267 8.37345 6.48214 6.55362L6.48214 6.55362ZM5.81663 6.16983C4.72639 8.06035 3.94667 10.0392 3.63342 11.689C3.25729 13.6699 3.55101 15.2429 4.48579 15.782C5.4513 16.3388 7.07173 15.7665 8.64959 14.3872C9.83566 13.3505 11.0603 11.7503 12.1667 9.83183C13.2211 8.00346 13.9771 6.15866 14.2964 4.60861C14.7346 2.48148 14.4481 0.767818 13.4698 0.203616C12.5316 -0.337395 10.9973 0.226692 9.44778 1.57519C8.18419 2.67485 6.89356 4.30242 5.81664 6.16983L5.81663 6.16983ZM6.48454 9.45223C5.44504 7.65662 4.71072 5.80431 4.40643 4.24909C4.06847 2.52185 4.29294 1.21895 4.85775 0.891984C5.45939 0.543676 6.78975 1.04028 8.19193 2.28531C9.30829 3.27651 10.4797 4.78916 11.4987 6.54944C12.5693 8.39861 13.3128 10.1837 13.6002 11.6358C13.7801 12.5449 13.8058 13.3668 13.6866 14.0093C13.5795 14.5867 13.3641 14.9715 13.0978 15.1257C12.5311 15.4538 11.3191 15.0274 10.0121 13.9026C8.80881 12.8672 7.53707 11.2703 6.48454 9.45222L6.48454 9.45223ZM5.81968 9.83713C6.9131 11.7258 8.2381 13.3896 9.51098 14.4849C11.0393 15.8001 12.5488 16.3312 13.4827 15.7906C14.4473 15.2322 14.7608 13.5425 14.3538 11.4867C14.0479 9.94131 13.2732 8.08114 12.1636 6.16453C11.1061 4.33789 9.88545 2.76161 8.70201 1.71084C7.07804 0.268873 5.45028 -0.338745 4.47285 0.227118C3.53558 0.769698 3.25804 2.38068 3.65249 4.3966C3.97413 6.04051 4.73964 7.9715 5.81968 9.83713L5.81968 9.83713Z" fill="#00D8FF"/>
</svg>
