<svg width="16" height="16" viewBox="0 0 16 16" fill="none" xmlns="http://www.w3.org/2000/svg">
<path d="M15.9953 0H0.0046875C0.00209867 0 0 0.00209867 0 0.0046875V15.9953C0 15.9979 0.00209867 16 0.0046875 16H15.9953C15.9979 16 16 15.9979 16 15.9953V0.0046875C16 0.00209867 15.9979 0 15.9953 0Z" fill="#CC6699"/>
<path d="M8.06231 2.75012C5.06231 3.78137 3.12481 5.87512 3.31231 7.12512C3.49981 8.37512 5.37481 9.37512 6.21856 10.0314C5.12481 10.5939 3.74981 11.4376 3.78106 12.5314C3.84356 14.0314 5.46856 13.5626 6.15606 13.1251C6.84356 12.6876 7.53106 11.4689 7.09356 10.1876C8.06231 9.93762 8.90606 10.2501 9.15606 10.4376C10.1248 11.1251 9.62481 11.9064 9.28106 12.0314C8.93731 12.1564 9.15606 12.2189 9.37481 12.1564C9.59356 12.0939 10.0623 11.7814 10.0623 11.2501C10.0623 9.90637 8.62481 9.28137 6.84356 9.75012C5.81231 8.65637 4.40606 8.15637 4.46856 6.96887C4.49981 6.53137 4.65606 5.40637 7.43731 4.00012C10.2186 2.59387 12.1873 3.15637 11.9373 4.43762C11.5623 6.37512 8.18731 7.68762 6.99981 6.56262C6.93731 6.43762 6.71856 6.34387 6.84356 6.68762C7.46856 8.25012 12.5311 7.53137 12.7498 4.21887C12.8123 2.46887 10.2811 2.00012 8.06231 2.75012ZM5.37481 12.7501C4.59356 13.0001 4.62481 12.5001 4.65606 12.3126C4.74981 11.7814 5.18731 11.1251 6.49981 10.4689C6.87481 11.6564 6.03106 12.5626 5.37481 12.7501Z" fill="white"/>
</svg>
